<?xml version="1.0" encoding="utf-8"?><!-- Uploaded to: SVG Repo, www.svgrepo.com, Generator: SVG Repo Mixer Tools -->
<svg width="800px" height="800px" viewBox="0 0 24 24" id="Layer_1" data-name="Layer 1" xmlns="http://www.w3.org/2000/svg"><defs><style>.cls-1{fill:none;stroke:#020202;stroke-miterlimit:10;stroke-width:1.91px;}</style></defs><line class="cls-1" x1="4.35" y1="8.15" x2="19.65" y2="8.15"/><path class="cls-1" d="M12,3.37h0a4.78,4.78,0,0,1,4.78,4.78v0a0,0,0,0,1,0,0H7.22a0,0,0,0,1,0,0v0A4.78,4.78,0,0,1,12,3.37Z"/><line class="cls-1" x1="12" y1="0.5" x2="12" y2="3.37"/><line class="cls-1" x1="10.09" y1="11.98" x2="10.09" y2="22.5"/><line class="cls-1" x1="13.91" y1="11.98" x2="13.91" y2="22.5"/><line class="cls-1" x1="17.74" y1="8.15" x2="17.74" y2="22.5"/><line class="cls-1" x1="6.26" y1="8.15" x2="6.26" y2="22.5"/><rect class="cls-1" x="17.74" y="11.02" width="4.78" height="11.48"/><rect class="cls-1" x="1.48" y="11.02" width="4.78" height="11.48"/><line class="cls-1" x1="0.52" y1="22.5" x2="23.48" y2="22.5"/><line class="cls-1" x1="3.39" y1="14.85" x2="6.26" y2="14.85"/><line class="cls-1" x1="3.39" y1="18.67" x2="6.26" y2="18.67"/><line class="cls-1" x1="17.74" y1="14.85" x2="20.61" y2="14.85"/><line class="cls-1" x1="17.74" y1="18.67" x2="20.61" y2="18.67"/></svg>